<svg width="35" height="35" viewBox="0 0 35 35" fill="none" xmlns="http://www.w3.org/2000/svg">
<path d="M27.7082 11.667C26.4929 11.667 25.4599 11.2416 24.6092 10.391C23.7585 9.54026 23.3332 8.50727 23.3332 7.29199C23.3332 6.07671 23.7585 5.04373 24.6092 4.19303C25.4599 3.34234 26.4929 2.91699 27.7082 2.91699C28.9234 2.91699 29.9564 3.34234 30.8071 4.19303C31.6578 5.04373 32.0832 6.07671 32.0832 7.29199C32.0832 8.50727 31.6578 9.54026 30.8071 10.391C29.9564 11.2416 28.9234 11.667 27.7082 11.667ZM5.83317 29.167C5.03109 29.167 4.34446 28.8814 3.77327 28.3102C3.20209 27.739 2.9165 27.0524 2.9165 26.2503V8.75033C2.9165 7.94824 3.20209 7.26161 3.77327 6.69043C4.34446 6.11925 5.03109 5.83366 5.83317 5.83366H20.5623C20.4651 6.31977 20.4165 6.80588 20.4165 7.29199C20.4165 7.7781 20.4651 8.26421 20.5623 8.75033C20.7325 9.5281 21.012 10.2512 21.4009 10.9196C21.7898 11.588 22.2637 12.1774 22.8228 12.6878L17.4998 16.042L5.83317 8.75033V11.667L17.4998 18.9587L25.1925 14.1462C25.6057 14.292 26.0189 14.4014 26.4321 14.4743C26.8453 14.5472 27.2707 14.5837 27.7082 14.5837C28.4859 14.5837 29.2516 14.4621 30.005 14.2191C30.7585 13.976 31.4512 13.6114 32.0832 13.1253V26.2503C32.0832 27.0524 31.7976 27.739 31.2264 28.3102C30.6552 28.8814 29.9686 29.167 29.1665 29.167H5.83317Z" fill="#1D1B20"/>
</svg>
