<svg width="38" height="34" viewBox="0 0 38 34" fill="none" xmlns="http://www.w3.org/2000/svg">
<path d="M6.3335 26.9163V24.083H9.50016V14.1663C9.50016 12.2066 10.1599 10.4712 11.4793 8.96009C12.7988 7.42537 14.5141 6.4219 16.6252 5.94967V4.95801C16.6252 4.36773 16.8495 3.8719 17.2981 3.47051C17.7731 3.04551 18.3404 2.83301 19.0002 2.83301C19.6599 2.83301 20.2141 3.04551 20.6627 3.47051C21.1377 3.8719 21.3752 4.36773 21.3752 4.95801V5.94967C23.4863 6.4219 25.2016 7.42537 26.521 8.96009C27.8404 10.4712 28.5002 12.2066 28.5002 14.1663V24.083H31.6668V26.9163H6.3335ZM19.0002 31.1663C18.1293 31.1663 17.3772 30.8948 16.7439 30.3518C16.137 29.7851 15.8335 29.1122 15.8335 28.333H22.1668C22.1668 29.1122 21.8502 29.7851 21.2168 30.3518C20.6099 30.8948 19.871 31.1663 19.0002 31.1663ZM12.6668 24.083H25.3335V14.1663C25.3335 12.608 24.7134 11.274 23.4731 10.1643C22.2328 9.05453 20.7418 8.49967 19.0002 8.49967C17.2585 8.49967 15.7675 9.05453 14.5272 10.1643C13.287 11.274 12.6668 12.608 12.6668 14.1663V24.083Z" fill="#1D1B20"/>
</svg>
